# xmcd CD database file
#
# Track frame offsets:
#	225
#	13356
#	26924
#	43089
#	60323
#	75125
#	89885
#	110516
#	125785
#	138594
#	153658
#	172102
#	185311
#	202927
#	219327
#	231066
#	246906
#	258117
#	276137
#	293020
#	306024
#	319727
#	334469
#
# Disc length: 4619 seconds
#
# Revision: 1
# Processed by: cddbd v1.5.2PL0 Copyright (c) Steve Scherf et al.
# Submitted via: CDex 1.51
#
DISCID=54120817
DTITLE=Varioius - The Greatest Hits of the '70's - CD 4 - The Great Country Classics
DYEAR=1900
DGENRE=Country
TTITLE0=Lynn Anderson - Rose Garden
TTITLE1=Dolly Parton - Here You Come Again
TTITLE2=Kenny Rogers - Lucille
TTITLE3=Dr. Hook - Sylvia's Mother
TTITLE4=Roger Whittaker - I Don't Believe in If Anymore
TTITLE5=Glen Campbell - Rhinestone Cowboy
TTITLE6=Pussycat - Mississippi
TTITLE7=Les Humphries Singers - To My Father's House
TTITLE8=Christie - Yellow River
TTITLE9=Dawn - Tie a Yellow Ribbon
TTITLE10=Les Humphries Singers - Mexico
TTITLE11=Middle of the Road - Sacramento
TTITLE12=Billie Jo Spears - Blanket on the Ground
TTITLE13=Charlie Daniels band - The Devil Went Down to Georgia
TTITLE14=Crystal Gayle - Don't it Make My Brown Eyes Blue
TTITLE15=The Dirt Band - An American Dream
TTITLE16=Conway Twitty - Hello Darlin'
TTITLE17=Linda Ronstadt - Blue Bayou
TTITLE18=Johnny Cash - (Ghost) Riders in the Sky
TTITLE19=Charlie Rich - The Most Beautiful Girl
TTITLE20=Cats - Be My Day
TTITLE21=John Denver - Take Me Home Country Roads
TTITLE22=Tammy Wynette - Stand by Your Man
EXTD=
EXTT0=
EXTT1=
EXTT2=
EXTT3=
EXTT4=
EXTT5=
EXTT6=
EXTT7=
EXTT8=
EXTT9=
EXTT10=
EXTT11=
EXTT12=
EXTT13=
EXTT14=
EXTT15=
EXTT16=
EXTT17=
EXTT18=
EXTT19=
EXTT20=
EXTT21=
EXTT22=
PLAYORDER=
